<svg width="38" height="39" viewBox="0 0 38 39" fill="none" xmlns="http://www.w3.org/2000/svg">
<path fill-rule="evenodd" clip-rule="evenodd" d="M27.208 19.6943C27.208 19.0881 27.1536 18.5051 27.0525 17.9455H19V21.2528H23.6015C23.4032 22.3215 22.8009 23.227 21.8953 23.8333V25.9786H24.6585C26.2753 24.4901 27.208 22.2982 27.208 19.6943Z" fill="#4285F4"/>
<path fill-rule="evenodd" clip-rule="evenodd" d="M19 28.05C21.3085 28.05 23.2439 27.2844 24.6585 25.9786L21.8953 23.8333C21.1297 24.3463 20.1503 24.6494 19 24.6494C16.7731 24.6494 14.8882 23.1454 14.2159 21.1245H11.3594V23.3397C12.7662 26.134 15.6577 28.05 19 28.05Z" fill="#34A853"/>
<path fill-rule="evenodd" clip-rule="evenodd" d="M14.2158 21.1245C14.0448 20.6115 13.9477 20.0635 13.9477 19.5C13.9477 18.9365 14.0448 18.3885 14.2158 17.8755V15.6603H11.3594C10.7803 16.8145 10.45 18.1204 10.45 19.5C10.45 20.8797 10.7803 22.1855 11.3594 23.3397L14.2158 21.1245Z" fill="#FBBC05"/>
<path fill-rule="evenodd" clip-rule="evenodd" d="M19 14.3506C20.2553 14.3506 21.3823 14.782 22.2684 15.6292L24.7207 13.1769C23.24 11.7972 21.3046 10.95 19 10.95C15.6577 10.95 12.7662 12.866 11.3594 15.6603L14.2159 17.8755C14.8882 15.8546 16.7731 14.3506 19 14.3506Z" fill="#EA4335"/>
</svg>
