<svg width="40" height="41" viewBox="0 0 40 41" fill="none" xmlns="http://www.w3.org/2000/svg">
<path d="M20.2363 15.486C21.016 15.486 21.9932 14.9589 22.5752 14.2562C23.1023 13.6193 23.4866 12.7298 23.4866 11.8404C23.4866 11.7196 23.4756 11.5988 23.4537 11.5C22.5862 11.5329 21.543 12.082 20.9171 12.8177C20.423 13.3777 19.9728 14.2562 19.9728 15.1566C19.9728 15.2884 19.9947 15.4201 20.0057 15.4641C20.0606 15.475 20.1485 15.486 20.2363 15.486ZM17.4911 28.7727C18.5563 28.7727 19.0284 28.059 20.3571 28.059C21.7077 28.059 22.0042 28.7508 23.1901 28.7508C24.3541 28.7508 25.1337 27.6747 25.8694 26.6205C26.693 25.4126 27.0334 24.2267 27.0554 24.1718C26.9785 24.1498 24.7494 23.2384 24.7494 20.6799C24.7494 18.4618 26.5063 17.4625 26.6052 17.3857C25.4412 15.7166 23.6733 15.6727 23.1901 15.6727C21.8834 15.6727 20.8183 16.4633 20.1485 16.4633C19.4237 16.4633 18.4684 15.7166 17.3374 15.7166C15.1852 15.7166 13 17.4955 13 20.8556C13 22.9419 13.8126 25.1491 14.8118 26.5766C15.6683 27.7845 16.415 28.7727 17.4911 28.7727Z" fill="white"/>
</svg>
