<svg
                width="164"
                height="57"
                viewBox="0 0 164 57"
                fill="none"
                xmlns="http://www.w3.org/2000/svg"
              >
                <path
                  d="M85.6719 27H82.2734V12H82.1709L76.0625 26.8242H73.4844L67.376 12H67.2734V27H63.8604V5.8623H68.2402L74.7148 21.8145H74.832L81.3066 5.8623H85.6719V27ZM102.811 11.4727V27H99.2949V24.3047H99.2217C98.3623 26.2871 96.7803 27.2783 94.4756 27.2783C92.7861 27.2783 91.4434 26.7656 90.4473 25.7402C89.4609 24.7051 88.9678 23.2939 88.9678 21.5068V11.4727H92.6152V20.7744C92.6152 21.8877 92.8789 22.7373 93.4062 23.3232C93.9434 23.9092 94.7246 24.2021 95.75 24.2021C96.7949 24.2021 97.625 23.8604 98.2402 23.1768C98.8555 22.4932 99.1631 21.585 99.1631 20.4521V11.4727H102.811ZM105.521 15.9258C105.521 14.5 106.097 13.3477 107.249 12.4688C108.401 11.5898 109.92 11.1504 111.805 11.1504C113.621 11.1504 115.096 11.5996 116.229 12.498C117.371 13.3867 117.967 14.5488 118.016 15.9844H114.617C114.559 15.3105 114.275 14.7832 113.768 14.4023C113.26 14.0215 112.581 13.8311 111.731 13.8311C110.931 13.8311 110.286 14.0068 109.798 14.3584C109.31 14.7002 109.065 15.1543 109.065 15.7207C109.065 16.5801 109.808 17.1904 111.292 17.5518L114.061 18.167C115.613 18.5283 116.722 19.0361 117.386 19.6904C118.05 20.3447 118.382 21.248 118.382 22.4004C118.382 23.8652 117.767 25.0518 116.536 25.96C115.306 26.8584 113.709 27.3076 111.746 27.3076C109.812 27.3076 108.255 26.8682 107.073 25.9893C105.901 25.1006 105.252 23.9141 105.125 22.4297H108.714C108.821 23.1426 109.144 23.6895 109.681 24.0703C110.228 24.4512 110.96 24.6416 111.878 24.6416C112.767 24.6416 113.465 24.4756 113.973 24.1436C114.49 23.8018 114.749 23.3428 114.749 22.7666C114.749 22.3174 114.588 21.9609 114.266 21.6973C113.953 21.4238 113.421 21.1895 112.669 20.9941L109.842 20.335C106.961 19.6611 105.521 18.1914 105.521 15.9258ZM120.799 27V11.4727H124.446V27H120.799ZM124.051 8.86523C123.66 9.24609 123.182 9.43652 122.615 9.43652C122.049 9.43652 121.57 9.24609 121.18 8.86523C120.789 8.47461 120.594 8.00586 120.594 7.45898C120.594 6.90234 120.789 6.43359 121.18 6.05273C121.57 5.66211 122.049 5.4668 122.615 5.4668C123.182 5.4668 123.66 5.66211 124.051 6.05273C124.451 6.43359 124.651 6.90234 124.651 7.45898C124.651 8.00586 124.451 8.47461 124.051 8.86523ZM141.189 17.0098H137.747C137.591 16.1406 137.22 15.4424 136.634 14.915C136.048 14.3779 135.286 14.1094 134.349 14.1094C133.196 14.1094 132.278 14.5684 131.595 15.4863C130.911 16.3945 130.569 17.6445 130.569 19.2363C130.569 20.8477 130.911 22.1074 131.595 23.0156C132.278 23.9141 133.206 24.3633 134.378 24.3633C135.296 24.3633 136.048 24.1191 136.634 23.6309C137.22 23.1328 137.596 22.4395 137.762 21.5508H141.204C141.058 23.2891 140.359 24.6855 139.109 25.7402C137.869 26.7852 136.277 27.3076 134.334 27.3076C132.049 27.3076 130.232 26.5898 128.885 25.1543C127.537 23.709 126.863 21.7363 126.863 19.2363C126.863 16.7656 127.537 14.8027 128.885 13.3477C130.232 11.8828 132.039 11.1504 134.305 11.1504C136.297 11.1504 137.908 11.707 139.139 12.8203C140.379 13.9238 141.062 15.3203 141.189 17.0098ZM149.056 24.4951C150.101 24.4951 150.979 24.1875 151.692 23.5723C152.415 22.9473 152.776 22.1709 152.776 21.2432V20.0566L149.188 20.2764C148.309 20.335 147.625 20.5547 147.137 20.9355C146.658 21.3066 146.419 21.7998 146.419 22.415C146.419 23.0498 146.658 23.5576 147.137 23.9385C147.625 24.3096 148.265 24.4951 149.056 24.4951ZM147.957 27.249C146.443 27.249 145.198 26.8145 144.222 25.9453C143.255 25.0762 142.771 23.9482 142.771 22.5615C142.771 21.1846 143.279 20.0957 144.295 19.2949C145.32 18.4941 146.78 18.0352 148.675 17.918L152.776 17.6836V16.5703C152.776 15.7598 152.518 15.1299 152 14.6807C151.492 14.2314 150.784 14.0068 149.876 14.0068C149.026 14.0068 148.333 14.1973 147.796 14.5781C147.259 14.959 146.932 15.4766 146.814 16.1309H143.431C143.509 14.6562 144.139 13.46 145.32 12.542C146.512 11.6143 148.079 11.1504 150.022 11.1504C151.946 11.1504 153.484 11.6191 154.637 12.5566C155.799 13.4941 156.38 14.7441 156.38 16.3066V27H152.864V24.5244H152.791C152.352 25.3545 151.688 26.0186 150.799 26.5166C149.91 27.0049 148.963 27.249 147.957 27.249ZM159.427 27V5.8623H163.074V27H159.427ZM77.1758 44.0098H73.7334C73.5771 43.1406 73.2061 42.4424 72.6201 41.915C72.0342 41.3779 71.2725 41.1094 70.335 41.1094C69.1826 41.1094 68.2646 41.5684 67.5811 42.4863C66.8975 43.3945 66.5557 44.6445 66.5557 46.2363C66.5557 47.8477 66.8975 49.1074 67.5811 50.0156C68.2646 50.9141 69.1924 51.3633 70.3643 51.3633C71.2822 51.3633 72.0342 51.1191 72.6201 50.6309C73.2061 50.1328 73.582 49.4395 73.748 48.5508H77.1904C77.0439 50.2891 76.3457 51.6855 75.0957 52.7402C73.8555 53.7852 72.2637 54.3076 70.3203 54.3076C68.0352 54.3076 66.2188 53.5898 64.8711 52.1543C63.5234 50.709 62.8496 48.7363 62.8496 46.2363C62.8496 43.7656 63.5234 41.8027 64.8711 40.3477C66.2188 38.8828 68.0254 38.1504 70.291 38.1504C72.2832 38.1504 73.8945 38.707 75.125 39.8203C76.3652 40.9238 77.0488 42.3203 77.1758 44.0098ZM79.373 54V38.4727H82.874V41.1826H82.9473C83.2109 40.2354 83.665 39.5029 84.3096 38.9854C84.9639 38.4678 85.75 38.209 86.668 38.209C86.9902 38.209 87.3711 38.2578 87.8105 38.3555V41.6514C87.4492 41.5146 86.9561 41.4463 86.3311 41.4463C85.2959 41.4463 84.4854 41.7588 83.8994 42.3838C83.3135 43.0088 83.0205 43.8682 83.0205 44.9619V54H79.373ZM101.448 52.1543C100.091 53.5898 98.2646 54.3076 95.9697 54.3076C93.6748 54.3076 91.8486 53.5898 90.4912 52.1543C89.1338 50.709 88.4551 48.7363 88.4551 46.2363C88.4551 43.7461 89.1387 41.7783 90.5059 40.333C91.873 38.8779 93.6943 38.1504 95.9697 38.1504C98.2549 38.1504 100.076 38.8779 101.434 40.333C102.801 41.7783 103.484 43.7461 103.484 46.2363C103.484 48.7363 102.806 50.709 101.448 52.1543ZM93.1865 50.0596C93.8701 50.9678 94.7979 51.4219 95.9697 51.4219C97.1416 51.4219 98.0693 50.9678 98.7529 50.0596C99.4365 49.1514 99.7783 47.877 99.7783 46.2363C99.7783 44.6055 99.4365 43.3359 98.7529 42.4277C98.0693 41.5098 97.1416 41.0508 95.9697 41.0508C94.8076 41.0508 93.8799 41.5098 93.1865 42.4277C92.5029 43.3359 92.1611 44.6055 92.1611 46.2363C92.1611 47.877 92.5029 49.1514 93.1865 50.0596ZM126.805 38.4727L122.601 54H118.763L115.701 42.6475H115.628L112.581 54H108.772L104.568 38.4727H108.23L110.853 50.3965H110.926L113.958 38.4727H117.459L120.491 50.3965H120.579L123.201 38.4727H126.805ZM134.275 54.249C132.312 54.249 130.745 53.5264 129.573 52.0811C128.411 50.6357 127.83 48.6826 127.83 46.2217C127.83 43.7705 128.411 41.8223 129.573 40.377C130.745 38.9316 132.312 38.209 134.275 38.209C135.369 38.209 136.336 38.4678 137.176 38.9854C138.025 39.5029 138.66 40.2012 139.08 41.0801H139.168V32.8623H142.815V54H139.241V51.3486H139.183C138.753 52.2373 138.104 52.9453 137.234 53.4727C136.375 53.9902 135.389 54.249 134.275 54.249ZM135.374 41.2119C134.202 41.2119 133.274 41.666 132.591 42.5742C131.907 43.4727 131.565 44.6934 131.565 46.2363C131.565 47.7891 131.902 49.0146 132.576 49.9131C133.26 50.8115 134.192 51.2607 135.374 51.2607C136.526 51.2607 137.449 50.8066 138.143 49.8984C138.836 48.9902 139.183 47.7695 139.183 46.2363C139.183 44.7129 138.836 43.4971 138.143 42.5889C137.449 41.6709 136.526 41.2119 135.374 41.2119Z"
                  fill="white"
                />
                <path
                  d="M34.6679 25.3745H41.3844L27.949 38.8122L41.3844 52.2452H34.6679L21.2325 38.8075L34.6679 25.3721V25.3745ZM34.2071 4.75949H40.926L14.0553 31.6302L10.697 28.272L34.2095 4.75949H34.2071Z"
                  fill="white"
                />
              </svg>